<svg width="42" height="41" viewBox="0 0 42 41" fill="none" xmlns="http://www.w3.org/2000/svg">
<rect width="42" height="41" fill="#F40000"/>
<path fill-rule="evenodd" clip-rule="evenodd" d="M11.8256 27.7332C11.4137 27.6143 11.0379 27.4027 10.7299 27.1162C10.4219 26.8298 10.1907 26.477 10.0558 26.0875C9.28508 24.0746 9.05672 15.6691 10.5411 14.0098C11.0351 13.47 11.7326 13.1376 12.4822 13.0849C16.4643 12.6769 28.7674 12.7313 30.1804 13.2209C30.5778 13.3438 30.9409 13.5508 31.2424 13.8263C31.544 14.1019 31.7762 14.439 31.9216 14.8122C32.7637 16.8932 32.7923 24.4554 31.8075 26.4547C31.5462 26.9752 31.1088 27.3968 30.5657 27.6516C29.0814 28.3589 13.7953 28.3453 11.8256 27.7332ZM18.1484 23.7889L25.2848 20.2527L18.1484 16.6892V23.7889Z" fill="white"/>
</svg>
