<svg width="42" height="41" viewBox="0 0 42 41" fill="none" xmlns="http://www.w3.org/2000/svg">
<rect width="42" height="41" fill="#55ACE3"/>
<path d="M32.13 15.2724C31.395 15.5799 30.5551 15.785 29.7151 15.8875C30.5551 15.375 31.29 14.555 31.605 13.6325C30.765 14.145 29.925 14.4525 28.875 14.6575C28.14 13.8375 26.985 13.325 25.83 13.325C23.52 13.325 21.63 15.17 21.63 17.425C21.63 17.7325 21.63 18.0399 21.735 18.3474C18.27 18.1424 15.12 16.5024 13.02 14.0424C12.705 14.6574 12.495 15.3749 12.495 16.0924C12.495 17.5274 13.23 18.7575 14.385 19.475C13.65 19.475 13.02 19.27 12.495 18.9625C12.495 20.91 13.965 22.6524 15.855 22.9599C15.54 23.0624 15.12 23.0625 14.7 23.0625C14.385 23.0625 14.175 23.0624 13.86 22.9599C14.385 24.5999 15.96 25.8299 17.85 25.8299C16.38 26.9574 14.595 27.5724 12.6 27.5724C12.285 27.5724 11.97 27.5725 11.55 27.47C13.44 28.5975 15.645 29.315 18.06 29.315C25.83 29.315 30.03 23.0624 30.03 17.6299V17.1174C30.87 16.8099 31.605 16.0924 32.13 15.2724Z" fill="white"/>
</svg>
