<svg width="41" height="41" viewBox="0 0 41 41" fill="none" xmlns="http://www.w3.org/2000/svg">
<rect width="41" height="41" fill="url(#paint0_radial_85_11)"/>
<path d="M20.5 12.1024C23.2169 12.1024 23.5873 12.1024 24.6988 12.1024C25.6867 12.1024 26.1807 12.3494 26.5512 12.4729C27.0452 12.7199 27.4157 12.8434 27.7861 13.2139C28.1566 13.5843 28.4036 13.9548 28.5271 14.4488C28.6506 14.8193 28.7741 15.3133 28.8976 16.3012C28.8976 17.4127 28.8976 17.6596 28.8976 20.5C28.8976 23.3404 28.8976 23.5873 28.8976 24.6988C28.8976 25.6867 28.6506 26.1807 28.5271 26.5512C28.2801 27.0452 28.1566 27.4157 27.7861 27.7861C27.4157 28.1566 27.0452 28.4036 26.5512 28.5271C26.1807 28.6506 25.6867 28.7741 24.6988 28.8976C23.5873 28.8976 23.3404 28.8976 20.5 28.8976C17.6596 28.8976 17.4127 28.8976 16.3012 28.8976C15.3133 28.8976 14.8193 28.6506 14.4488 28.5271C13.9548 28.2801 13.5843 28.1566 13.2139 27.7861C12.8434 27.4157 12.5964 27.0452 12.4729 26.5512C12.3494 26.1807 12.2259 25.6867 12.1024 24.6988C12.1024 23.5873 12.1024 23.3404 12.1024 20.5C12.1024 17.6596 12.1024 17.4127 12.1024 16.3012C12.1024 15.3133 12.3494 14.8193 12.4729 14.4488C12.7199 13.9548 12.8434 13.5843 13.2139 13.2139C13.5843 12.8434 13.9548 12.5964 14.4488 12.4729C14.8193 12.3494 15.3133 12.2259 16.3012 12.1024C17.4127 12.1024 17.7831 12.1024 20.5 12.1024ZM20.5 10.25C17.6596 10.25 17.4127 10.25 16.3012 10.25C15.1898 10.25 14.4488 10.497 13.8313 10.744C13.2139 10.991 12.5964 11.3614 11.9789 11.9789C11.3614 12.5964 11.1145 13.0904 10.744 13.8313C10.497 14.4488 10.3735 15.1898 10.25 16.3012C10.25 17.4127 10.25 17.7831 10.25 20.5C10.25 23.3404 10.25 23.5873 10.25 24.6988C10.25 25.8102 10.497 26.5512 10.744 27.1687C10.991 27.7861 11.3614 28.4036 11.9789 29.0211C12.5964 29.6386 13.0904 29.8855 13.8313 30.256C14.4488 30.503 15.1898 30.6265 16.3012 30.75C17.4127 30.75 17.7831 30.75 20.5 30.75C23.2169 30.75 23.5873 30.75 24.6988 30.75C25.8102 30.75 26.5512 30.503 27.1687 30.256C27.7861 30.009 28.4036 29.6386 29.0211 29.0211C29.6386 28.4036 29.8855 27.9096 30.256 27.1687C30.503 26.5512 30.6265 25.8102 30.75 24.6988C30.75 23.5873 30.75 23.2169 30.75 20.5C30.75 17.7831 30.75 17.4127 30.75 16.3012C30.75 15.1898 30.503 14.4488 30.256 13.8313C30.009 13.2139 29.6386 12.5964 29.0211 11.9789C28.4036 11.3614 27.9096 11.1145 27.1687 10.744C26.5512 10.497 25.8102 10.3735 24.6988 10.25C23.5873 10.25 23.3404 10.25 20.5 10.25Z" fill="white"/>
<path d="M20.5 15.1898C17.5361 15.1898 15.1898 17.5361 15.1898 20.5C15.1898 23.4639 17.5361 25.8102 20.5 25.8102C23.4639 25.8102 25.8102 23.4639 25.8102 20.5C25.8102 17.5361 23.4639 15.1898 20.5 15.1898ZM20.5 23.9578C18.6476 23.9578 17.0422 22.4759 17.0422 20.5C17.0422 18.6476 18.5241 17.0422 20.5 17.0422C22.3524 17.0422 23.9578 18.5241 23.9578 20.5C23.9578 22.3524 22.3524 23.9578 20.5 23.9578Z" fill="white"/>
<path d="M25.9337 16.3012C26.6158 16.3012 27.1687 15.7483 27.1687 15.0663C27.1687 14.3842 26.6158 13.8313 25.9337 13.8313C25.2517 13.8313 24.6988 14.3842 24.6988 15.0663C24.6988 15.7483 25.2517 16.3012 25.9337 16.3012Z" fill="white"/>
<defs>
<radialGradient id="paint0_radial_85_11" cx="0" cy="0" r="1" gradientUnits="userSpaceOnUse" gradientTransform="translate(41.8248 0.832813) scale(94.6812)">
<stop stop-color="#F9ED32"/>
<stop offset="0.36" stop-color="#EE2A7B"/>
<stop offset="0.44" stop-color="#D22A8A"/>
<stop offset="0.6" stop-color="#8B2AB2"/>
<stop offset="0.83" stop-color="#1B2AF0"/>
<stop offset="0.88" stop-color="#002AFF"/>
</radialGradient>
</defs>
</svg>
